# AST/ASF file generated using VICON BodyLanguage
# -----------------------------------------------
:version 1.10
:name VICON
:units
  mass 1.0
  length 0.45
  angle deg
:documentation
   .ast/.asf automatically generated from VICON data using
   VICON BodyBuilder and BodyLanguage model FoxedUp or BRILLIANT.MOD
:root
   order TX TY TZ RX RY RZ
   axis XYZ
   position 0 0 0  
   orientation 0 -0 0 
:bonedata
  begin
     id 1 
     name lhipjoint
     direction 0.515797 -0.759363 0.396637 
     length 2.47888 
     axis 0 -0 0  XYZ
  end
  begin
     id 2 
     name lfemur
     direction 0.34202 -0.939693 0  
     length 6.81885  
     axis 0 -0 20  XYZ
    dof rx ry rz
    limits (-160.0 20.0)
           (-70.0 70.0)
           (-60.0 70.0)
  end
  begin
     id 3 
     name ltibia
     direction 0.342037 -0.939687 0   
     length 7.89258   
     axis 0 -0 20   XYZ
    dof rx
    limits (-10.0 170.0)
  end
  begin
     id 4 
     name lfoot
     direction 0.173497 -0.476678 0.861787   
     length 2.51543   
     axis -90 -1.13533e-015 20   XYZ
    dof rx rz
    limits (-45.0 90.0)
           (-70.0 20.0)
  end
  begin
     id 5 
     name ltoes
     direction 1.53564e-011 -4.21897e-011 1   
     length 1.21388   
     axis -90 -1.13533e-015 20   XYZ
    dof rx
    limits (-90.0 20.0)
  end
  begin
     id 6 
     name rhipjoint
     direction -0.489454 -0.772941 0.403729   
     length 2.43534  
     axis 0 -0 0  XYZ 
  end
  begin
     id 7 
     name rfemur
     direction -0.34202 -0.939693 0   
     length 7.10357   
     axis 0 -0 -20   XYZ
    dof rx ry rz
    limits (-160.0 20.0)
           (-70.0 70.0)
           (-70.0 60.0)
  end
  begin
     id 8 
     name rtibia
     direction -0.34202 -0.939693 0   
     length 9.16127   
     axis 0 -0 -20   XYZ
    dof rx
    limits (-10.0 170.0)
 end
 begin
     id 9 
     name rfoot
     direction -0.270974 -0.748671 0.605033   
     length 1.74894  
     axis -90 1.13533e-015 -20   XYZ
    dof rx rz
    limits (-45.0 90.0)
           (-20.0 70.0)
  end
  begin
     id 10 
     name rtoes
     direction -1.53557e-011 -4.21759e-011 1   
     length 0.787585   
     axis -90 1.13533e-015 -20   XYZ
    dof rx
    limits (-90.0 20.0)
  end
  begin
     id 11 
     name lowerback
     direction -0.0140249 0.999561 0.0260968   
     length 2.16963   
     axis 0 -0 0   XYZ
    dof rx ry rz
    limits (-20.0 45.0)
           (-30.0 30.0)
           (-30.0 30.0)
  end
  begin
     id 12 
     name upperback
     direction 0.00860018 0.999959 -0.002711   
     length 2.1726   
     axis 0 -0 0   XYZ
    dof rx ry rz
    limits (-20.0 45.0)
           (-30.0 30.0)
           (-30.0 30.0)
  end
  begin
     id 13 
     name thorax
     direction 0.015211 0.999782 -0.0143191   
     length 2.17061   
     axis 0 -0 0   XYZ
    dof rx ry rz
    limits (-20.0 45.0)
           (-30.0 30.0)
           (-30.0 30.0)
  end
  begin
     id 14 
     name lowerneck
     direction -0.0140143 0.999447 0.030145   
     length 2.26749   
     axis 0 -0 0   XYZ
    dof rx ry rz
    limits (-20.0 45.0)
           (-30.0 30.0)
           (-30.0 30.0)
  end
  begin
     id 15 
     name upperneck
     direction 0.118062 0.961438 -0.248392   
     length 2.22728   
     axis 0 -0 0   XYZ
    dof rx ry rz
    limits (-20.0 45.0)
           (-30.0 30.0)
           (-30.0 30.0)
  end
  begin
     id 16
     name head
     direction 0.0431885 0.9954 -0.085514  
     length 2.28786  
     axis 0 -0 0   XYZ
    dof rx ry rz
    limits (-20.0 45.0)
           (-30.0 30.0)
           (-30.0 30.0)
  end
  begin
     id 17 
     name lclavicle
     direction 0.912126 0.409548 0.0172323  
     length 4.31571  
     axis 0 -0 0   XYZ
    dof ry rz
    limits (-20.0 10.0)
           (0.0 20.0)
  end
  begin
     id 18 
     name lhumerus
     direction 1 -4.48977e-011 1.93091e-027   
     length 5.13658   
     axis 180 -30 -90   XYZ
    dof rx ry rz
    limits (-60.0 90.0)
           (-90.0 90.0)
           (-90.0 90.0)
  end
  begin
     id 19
     name lradius
     direction 1 -4.48916e-011 6.84018e-027   
     length 3.22473   
     axis 180 -30 -90   XYZ
    dof rx
    limits (-10.0 170.0)
  end
  begin
     id 20
     name lwrist
     direction 1 -4.48987e-011 7.01981e-027   
     length 1.61236   
     axis -4.37994e-015 90 90   XYZ
    dof ry
    limits (-180.0 0.0)
 end
  begin
     id 21 
     name lhand
     direction 1 -4.49037e-011 1.40335e-026   
     length 0.936406   
     axis -8.96029e-015 90 90   XYZ
    dof rx rz
    limits (-90.0 90.0)
           (-45.0 45.0)
  end
  begin
     id 22 
     name lfingers
     direction 1 -4.48886e-011 2.8104e-026   
     length 0.754955   
     axis -1.79203e-014 90 90   XYZ
    dof rx
    limits (0.0 90.0)
  end
  begin
     id 23
     name lthumb
     direction 0.707107 -6.34937e-011 0.707107   
     length 1.08397   
     axis -90 45 -4.48555e-014   XYZ
    dof rx rz
    limits (-45.0 45.0)
           (-45.0 45.0)
  end
  begin
     id 24 
     name rclavicle
     direction -0.947962 0.317997 0.0156638   
     length 4.86918  
     axis 0 -0 0   XYZ 
    dof ry rz
    limits (-10.0 20.0)
           (-20.0 0.0)
  end
  begin
     id 25 
     name rhumerus
     direction -1 -4.48951e-011 2.80534e-018  
     length 5.60911   
     axis 180 30 90   XYZ
    dof rx ry rz
    limits (-90.0 60.0)
           (-90.0 90.0)
           (-90.0 90.0)
  end
  begin
     id 26 
     name rradius
     direction -1 -4.4898e-011 2.11315e-027   
     length 3.38704   
     axis 180 30 90   XYZ
    dof rx
    limits (-10.0 170.0)
  end
  begin
     id 27 
     name rwrist
     direction -1 -4.48933e-011 7.02314e-027   
     length 1.69352   
     axis -4.37994e-015 -90 -90   XYZ
    dof ry
    limits (-180.0 0.0)
  end
  begin
     id 28
     name rhand
     direction -1 -4.48937e-011 1.40458e-026   
     length 0.755878   
     axis -8.96029e-015 -90 -90   XYZ
    dof rx rz
    limits (-90.0 90.0)
           (-45.0 45.0)
  end
  begin
     id 29
     name rfingers
     direction -1 -4.4901e-011 2.80737e-026   
     length 0.609409   
     axis -1.79203e-014 -90 -90   XYZ
    dof rx
    limits (0.0 90.0)
  end
  begin
     id 30
     name rthumb
     direction -0.707107 -6.34968e-011 0.707107   
     length 0.874992   
     axis -90 -45 4.48555e-014   XYZ
    dof rx rz
    limits (-45.0 45.0)
           (-45.0 45.0)
  end
:hierarchy
  begin
    root lhipjoint rhipjoint lowerback
    lhipjoint lfemur
    lfemur ltibia
    ltibia lfoot
    lfoot ltoes
    rhipjoint rfemur
    rfemur rtibia
    rtibia rfoot
    rfoot rtoes
    lowerback upperback
    upperback thorax
    thorax lowerneck lclavicle rclavicle
    lowerneck upperneck
    upperneck head
    lclavicle lhumerus
    lhumerus lradius
    lradius lwrist
    lwrist lhand lthumb
    lhand lfingers
    rclavicle rhumerus
    rhumerus rradius
    rradius rwrist
    rwrist rhand rthumb
    rhand rfingers
  end

#!OML:ASF C:\ViconDB\ViconDB\414\Spring2016\041811\Spring2016.ASF
:FULLY-SPECIFIED
:DEGREES
93
root 8.05933 16.1651 3.77398 -159.386 -4.49433 179.896
lowerback 32.1832 0.60252 0.0861067
upperback 4.86201 -0.588374 -0.310236
thorax -11.2506 -0.822792 -0.0436986
lowerneck -15.5387 -4.57272 -13.6778
upperneck 1.83243 -5.34533 18.7468
head 4.05217 -2.12638 7.75534
rclavicle -3.67752e-015 -1.97791e-014
rhumerus -60.4155 -6.3851 -89.9066
rradius 48.0685
rwrist 14.7494
rhand -36.156 -17.3264
rfingers 7.12502
rthumb -9.26038 -47.103
lclavicle -3.67752e-015 -1.97791e-014
lhumerus -48.7488 -8.73108 79.7652
lradius 20.9635
lwrist -31.5075
lhand -33.6989 19.0003
lfingers 7.12502
lthumb -6.88893 48.8682
rfemur -55.7591 -11.275 23.4152
rtibia 67.8047
rfoot -2.76993 -14.8626
rtoes -5.98395
lfemur -60.9607 4.76676 -14.8591
ltibia 68.4899
lfoot -27.783 -9.32426
ltoes -10.658
94
root 8.05465 16.0641 3.71481 -159.379 -4.37639 179.843
lowerback 32.4574 0.682266 -0.0141359
upperback 4.83342 -0.530996 -0.305745
thorax -11.3941 -0.796605 -0.00324198
lowerneck -15.4683 -4.70203 -13.8348
upperneck 1.42302 -5.48913 18.9675
head 3.95819 -2.21228 7.84023
rclavicle 1.02374e-014 -1.88845e-015
rhumerus -60.0005 -7.47978 -89.2112
rradius 46.9017
rwrist 15.0378
rhand -36.5272 -17.284
rfingers 7.12502
rthumb -9.61848 -47.0444
lclavicle 1.02374e-014 -1.88845e-015
lhumerus -48.4741 -8.02629 79.5167
lradius 20.9183
lwrist -31.216
lhand -33.6626 19.1669
lfingers 7.12502
lthumb -6.85383 49.036
rfemur -56.2838 -11.1198 23.2692
rtibia 69.1193
rfoot -2.14067 -15.1133
rtoes -5.91082
lfemur -61.4873 4.95726 -14.9721
ltibia 69.79
lfoot -28.4622 -9.36343
ltoes -10.8691
95
root 8.05004 15.9692 3.65069 -159.323 -4.1906 179.648
lowerback 32.5235 0.80159 -0.312114
upperback 4.83811 -0.491024 -0.327131
thorax -11.4155 -0.770623 0.119863
lowerneck -15.5637 -4.8462 -14.0247
upperneck 1.18302 -5.64787 19.2021
head 3.94636 -2.29272 7.93486
rclavicle 3.27995e-015 9.64106e-015
rhumerus -59.3703 -8.99835 -88.1516
rradius 45.4791
rwrist 16.4298
rhand -36.7526 -16.8318
rfingers 7.12502
rthumb -9.83596 -46.5821
lclavicle 3.27995e-015 9.64106e-015
lhumerus -48.0487 -7.56696 79.5712
lradius 21.0098
lwrist -29.896
lhand -33.7112 19.3584
lfingers 7.12502
lthumb -6.90079 49.2259
rfemur -56.7907 -10.9776 22.9574
rtibia 70.3485
rfoot -1.51948 -15.3223
rtoes -5.82938
lfemur -61.9671 5.08255 -15.2525
ltibia 70.9818
lfoot -29.1616 -9.23263
ltoes -11.0888
96
root 8.04839 15.8814 3.57951 -159.323 -4.13607 179.624
lowerback 32.5378 0.854971 -0.421139
upperback 4.84411 -0.464211 -0.333942
thorax -11.4145 -0.755767 0.161158
lowerneck -15.558 -4.9109 -14.0058
upperneck 0.858093 -5.73437 19.3288
head 3.8701 -2.34916 7.96322
rclavicle -5.76476e-015 2.27608e-014
rhumerus -58.6645 -10.4167 -87.3045
rradius 44.2582
rwrist 17.5033
rhand -37.0771 -16.9654
rfingers 7.12502
rthumb -10.149 -46.7006
lclavicle -5.76476e-015 2.27608e-014
lhumerus -47.2618 -6.23528 78.9448
lradius 21.1141
lwrist -28.2069
lhand -33.3395 18.5468
lfingers 7.12502
lthumb -6.54197 48.4258
rfemur -57.1 -10.8332 22.8705
rtibia 71.4359
rfoot -0.848988 -15.5014
rtoes -5.7257
lfemur -62.2954 5.19841 -15.2616
ltibia 72.0686
lfoot -29.8234 -9.28798
ltoes -11.1849
